#!OML:ASF F:\twosubjects\two\Thursday\Session 1\justin.ASF
:FULLY-SPECIFIED
:DEGREES
293
root 9.42518 18.4724 4.82784 -165.65 33.1078 -173.01
lowerback 3.76956 -0.612875 -0.133802
upperback 5.38484 -0.479218 5.88413
thorax 3.51836 -0.171155 6.22803
lowerneck -13.7497 -5.87101 -9.90253
upperneck 32.3028 -7.98473 12.4076
head 14.3384 -2.45019 5.67483
rclavicle 9.54166e-015 -5.80451e-014
rhumerus -19.8195 -7.31578 -79.2852
rradius 38.7195
rwrist -7.76602
rhand -12.3872 12.8233
rfingers 7.12502
rthumb 13.6839 -16.7068
lclavicle 9.54166e-015 -5.80451e-014
lhumerus -27.9795 -4.88606 88.8178
lradius 45.7106
lwrist 0.0664124
lhand -3.05266 37.2088
lfingers 7.12502
lthumb 22.6634 65.8981
rfemur -23.4073 -6.06479 29.3715
rtibia 24.9776
rfoot -11.4576 -9.23664
rtoes -2.61508
lfemur -17.0028 12.7908 -10.2941
ltibia 47.9037
lfoot 0.274461 -17.3754
ltoes -21.8211
294
root 9.44936 18.4568 4.80834 -165.868 33.2407 -173.039
lowerback 3.9586 -0.32868 -0.02704
upperback 5.32782 -0.0796895 6.0023
thorax 3.30828 0.0395721 6.28739
lowerneck -13.3239 -6.05056 -10.3764
upperneck 32.1587 -8.23193 12.799
head 14.2669 -2.57092 5.8836
rclavicle 4.92986e-014 3.18055e-014
rhumerus -19.7101 -8.00372 -78.6997
rradius 38.8415
rwrist -7.82738
rhand -12.6946 12.7399
rfingers 7.12502
rthumb 13.3875 -16.8099
lclavicle 4.92986e-014 3.18055e-014
lhumerus -28.5175 -5.49182 89.6281
lradius 46.6289
lwrist 0.0146644
lhand -3.32405 37.4546
lfingers 7.12502
lthumb 22.4029 66.1755
rfemur -23.185 -6.32682 29.4008
rtibia 25.1155
rfoot -11.6177 -8.97583
rtoes -3.08348
lfemur -17.4629 12.8625 -10.0712
ltibia 48.9496
lfoot -0.599545 -18.2508
ltoes -22.1467
295
root 9.47262 18.4406 4.79151 -165.862 33.3022 -172.75
lowerback 4.08129 -0.122788 0.360659
upperback 5.39034 0.213615 5.92673
thorax 3.27028 0.20602 5.98026
lowerneck -13.0644 -6.14865 -10.1243
upperneck 31.7168 -8.58856 13.2744
head 14.0829 -2.6471 5.95251
rclavicle 1.90833e-014 -1.59028e-014
rhumerus -19.2828 -8.80258 -78.7168
rradius 38.8766
rwrist -8.09756
rhand -12.1596 12.912
rfingers 7.12502
rthumb 13.9032 -16.6032
lclavicle 1.90833e-014 -1.59028e-014
lhumerus -28.6184 -6.7961 89.7519
lradius 47.3258
lwrist 0.620401
lhand -3.90969 37.4632
lfingers 7.12502
lthumb 21.8407 66.2507
rfemur -23.0021 -6.11103 29.6485
rtibia 25.2922
rfoot -11.7002 -9.19213
rtoes -4.44219
lfemur -17.9379 12.9231 -9.55464
ltibia 49.8547
lfoot -1.37974 -18.9933
ltoes -23.1102
296
root 9.49994 18.4425 4.77884 -165.922 33.2511 -172.636
lowerback 4.17251 0.126637 0.6803
upperback 5.56279 0.547846 5.52608
thorax 3.36624 0.387619 5.36875
lowerneck -13.5223 -6.42823 -8.84283
upperneck 31.564 -9.37896 13.4771
head 14.1883 -2.7865 5.66026
rclavicle 7.39479e-014 4.77083e-014
rhumerus -18.811 -10.0361 -79.2424
rradius 39.1261
rwrist -8.47885
rhand -11.7124 13.3149
rfingers 7.12502
rthumb 14.3341 -16.1703
lclavicle 7.39479e-014 4.77083e-014
lhumerus -28.1476 -8.583 89.2166
lradius 47.8135
lwrist 1.50241
lhand -4.01228 37.245
lfingers 7.12502
lthumb 21.7422 66.0439
rfemur -22.8206 -6.04424 29.7881
rtibia 25.4295
rfoot -11.8336 -9.33191
rtoes -5.62348
lfemur -18.4064 12.6319 -9.13069
ltibia 50.6323
lfoot -2.13495 -19.0879
ltoes -23.5407
297
root 9.52409 18.4493 4.7637 -166.095 33.3396 -172.684
lowerback 4.2792 -0.544916 0.0848349
upperback 5.60772 -0.350475 5.83031
thorax 3.4475 -0.0879407 6.04763
lowerneck -13.6833 -5.7942 -9.11479
upperneck 32.0025 -8.30556 13.1823
head 14.2429 -2.38661 5.79461
rclavicle 1.29608e-013 -9.70069e-014
rhumerus -18.0105 -7.64345 -79.6391
rradius 39.1619
rwrist -8.86768
rhand -12.0659 13.2053
rfingers 7.12502
rthumb 13.9935 -16.3037
lclavicle 1.29608e-013 -9.70069e-014
lhumerus -28.6884 -6.25174 89.0069
lradius 48.7685
lwrist 1.55099
lhand -3.81835 37.3778
lfingers 7.12502
lthumb 21.9284 66.155
rfemur -22.6119 -6.3742 29.8223
rtibia 25.5147
rfoot -12.0329 -8.93394
rtoes -5.67414
lfemur -18.7536 12.3047 -8.92982
ltibia 51.2633
lfoot -2.97353 -18.6478
ltoes -21.8341
